<svg width="39" height="15" viewBox="0 0 39 15" fill="none" xmlns="http://www.w3.org/2000/svg">
<path id="Vector" fill-rule="evenodd" clip-rule="evenodd" d="M2.72757 4.03874C2.72757 4.03874 4.29439 4.51018 6.92197 5.15321C8.12999 5.44552 9.53748 5.78732 11.1054 6.08921C14.6683 6.77857 18.9937 7.40222 23.5937 8.70941C28.1533 10.0076 32.9128 11.7168 37.3272 14.2109C37.8144 14.5242 38.376 14.4761 38.5854 14.1105C38.7948 13.7448 38.5639 13.1956 38.0768 12.8823C32.5117 8.90416 26.1308 6.00911 20.2405 3.9274C17.8962 3.10188 15.6493 2.40158 13.564 1.86666C11.9705 1.4576 10.4664 1.09305 9.12455 0.894227C7.72957 0.690847 6.52213 0.630857 5.50162 0.611158C3.19785 0.557892 1.92861 0.725381 1.92861 0.725381C0.940828 0.647715 0.322725 1.32925 0.541471 2.24466C0.760217 3.16007 1.7398 3.96108 2.72757 4.03874Z" fill="#343D33"/>
</svg>
